<svg xmlns="http://www.w3.org/2000/svg" viewBox="0 0 261.96 140.25"><defs><style>.cls-1{fill:#0dd;}.cls-2{fill:#e79e81;}.cls-3{fill:#e5786a;}.cls-4{fill:#a45641;}</style></defs><title>Asset 13</title><g id="Layer_2" data-name="Layer 2"><g id="Layer_3" data-name="Layer 3"><path class="cls-1" d="M15.48,2.89H259a0,0,0,0,1,0,0v76.4a0,0,0,0,1,0,0H0a0,0,0,0,1,0,0V18.36A15.48,15.48,0,0,1,15.48,2.89Z"/><line class="cls-2" x1="213.13" y1="132.31" x2="212.38" y2="132.31"/><line class="cls-2" x1="212.38" y1="140.25" x2="212.38" y2="139.5"/></g><g id="Layer_1-2" data-name="Layer 1"><path class="cls-3" d="M203.71,77"/><path class="cls-3" d="M245.71,87.39"/><path class="cls-4" d="M0,62.14H259a0,0,0,0,1,0,0v52.39a13.36,13.36,0,0,1-13.36,13.36H0a0,0,0,0,1,0,0V62.14A0,0,0,0,1,0,62.14Z"/><path class="cls-4" d="M15.13,44.12V16.86H30.34v3.76H19.56v6.83H30.34v3.89H19.56v8.81H30.34v4Z"/><path class="cls-4" d="M41.14,44.12V15.78L58.46,32.44q.71.71,1.43,1.51t1.53,1.81V16.86h4.1V45.18l-17.67-17q-.71-.69-1.37-1.45t-1.26-1.6v19Z"/><path class="cls-4" d="M92.6,30.15h10.8q0,.28,0,.78.06,1.32.06,1.79,0,5.75-3.3,8.94t-9.29,3.18a16.91,16.91,0,0,1-6-1,12.68,12.68,0,0,1-4.6-3,13.53,13.53,0,0,1-3-4.64,15.61,15.61,0,0,1-1-5.7,15.09,15.09,0,0,1,1.05-5.7,13.18,13.18,0,0,1,3.12-4.6,13.44,13.44,0,0,1,4.67-3,15.94,15.94,0,0,1,5.74-1,13.6,13.6,0,0,1,5.76,1.17A12.84,12.84,0,0,1,101.18,21l-3.24,2.44a9,9,0,0,0-3.11-2.38A9.31,9.31,0,0,0,91,20.28a9.72,9.72,0,0,0-7.23,2.84,10.06,10.06,0,0,0-2.8,7.38,10.29,10.29,0,0,0,2.8,7.5A9.7,9.7,0,0,0,91,40.88a9.22,9.22,0,0,0,6-1.77,5.88,5.88,0,0,0,2.18-4.82V33.9H92.6Z"/><path class="cls-4" d="M113.85,44.12V16.86h4.43v23.3h9.91v4Z"/><path class="cls-4" d="M137.58,44.12V16.86H142V44.12Z"/><path class="cls-4" d="M152.53,38.66,156.07,37a4.88,4.88,0,0,0,1.84,2.78,5.75,5.75,0,0,0,3.43,1,4.38,4.38,0,0,0,3.14-1.1,3.85,3.85,0,0,0,1.16-2.94q0-2.4-4-4.28L160.8,32q-4.51-2.2-6-4a6.52,6.52,0,0,1-1.5-4.35,7,7,0,0,1,2.26-5.4,8.45,8.45,0,0,1,5.93-2.07,10,10,0,0,1,5,1.16,6.13,6.13,0,0,1,2.81,3.34l-3.46,1.79a5.77,5.77,0,0,0-1.8-1.88,4.22,4.22,0,0,0-2.24-.6A4.13,4.13,0,0,0,159,21a3.17,3.17,0,0,0-1.05,2.5q0,2.46,4.62,4.58l.56.26A16.43,16.43,0,0,1,168.68,32a6.63,6.63,0,0,1,1.51,4.44,8,8,0,0,1-2.44,6.15,9.26,9.26,0,0,1-6.59,2.28,9.54,9.54,0,0,1-5.71-1.6A7.49,7.49,0,0,1,152.53,38.66Z"/><path class="cls-4" d="M180.75,44.12V16.86h4.43V26.91h13.41V16.86H203V44.12h-4.43V30.88H185.18V44.12Z"/><path class="cls-4" d="M250.25,5.19,213.91,38.61A11.69,11.69,0,0,0,211,42c-1.67,3.54,2.41,6.21,4.76,8.4,1.05,1,1.27.91,2,.64a8.1,8.1,0,0,0,2.9-1.67c5.2-5.1,10.17-10.43,15.14-15.76l20.63-22.13ZM259,9.35c.7-.74,1.44-1.41,2.06-2.18a3.72,3.72,0,0,0,0-4.73A11.17,11.17,0,0,0,259.5.81a3.55,3.55,0,0,0-4.12-.28A8,8,0,0,0,253.62,2l-.89.94Zm-49.84,39c-.57.57-1.11,1.1-1.64,1.65a3.09,3.09,0,0,0-1.06,2.42,2.57,2.57,0,0,0,2,2.46,2.74,2.74,0,0,0,2.66-.73c.54-.53,1.09-1,1.64-1.58l.26-.27Z"/><path class="cls-4" d="M250.27,5.13l6.28,6.37-.2.22-16.9,18c-6,6.38-12.41,13.16-18.41,19.54a7.78,7.78,0,0,1-4.12,2.12c-.17.19-4.81-3.63-6.48-6.19a.33.33,0,0,1-.09-.21,6.28,6.28,0,0,1,.81-3.32,7.11,7.11,0,0,1,1.3-1.65L247.84,7.37Z"/><path class="cls-4" d="M259,9.35l-6.31-6.4.89-.94A8,8,0,0,1,255.38.53a3.55,3.55,0,0,1,4.12.28,11.17,11.17,0,0,1,1.62,1.63,3.72,3.72,0,0,1,0,4.73C260.48,7.93,259.74,8.61,259,9.35Z"/><path class="cls-4" d="M209.2,48.35l3.85,3.94-.26.27c-.55.53-1.1,1-1.64,1.58a2.74,2.74,0,0,1-2.66.73,2.57,2.57,0,0,1-2-2.46A3.09,3.09,0,0,1,207.56,50C208.09,49.45,208.64,48.92,209.2,48.35Z"/></g><g id="Layer_2-2" data-name="Layer 2"><path class="cls-1" d="M52.27,85a4,4,0,0,1-2.53,4,12,12,0,0,1-3.82.75c-.37,0-.55.18-.55.41q0-.07.75,2A53.46,53.46,0,0,1,49.33,110a45.81,45.81,0,0,1-.27,5.05,11.69,11.69,0,0,1-1.09,2.8,5.4,5.4,0,0,1-2.18,2.46,1,1,0,0,1-.55.14,4.33,4.33,0,0,1-2.53-1.13,4.28,4.28,0,0,1-1.64-1.95,37.32,37.32,0,0,1-1-8.88q0-2.94.48-9t.48-9.11q0-.21-1.09-.68a19,19,0,0,1-1.84-.82,2.35,2.35,0,0,1-1.23-2.12,3.22,3.22,0,0,1,.14-.89,1.55,1.55,0,0,1,1.37-1.26q1-.1,1.91-.1a1.09,1.09,0,0,0,.89-.75Q41.62,78,42,72.17q.68-6.42,3.62-10.1a2,2,0,0,1,1.5-.61,3,3,0,0,1,1.74.55q.78.55.85,1a7.3,7.3,0,0,1,.21,1.78,21.06,21.06,0,0,1-1.37,6.14,36.35,36.35,0,0,0-1.43,6.21q-.82,5.33-1,6.28-.07.41,1.57.41.34-.07,1.57-.41a5.43,5.43,0,0,1,1.57-.34Q52.2,83.09,52.27,85Zm-6.62,30.25a24,24,0,0,0,1-7.31,59.69,59.69,0,0,0-1.37-11.27q-.41-1.16-.68-1.16a.12.12,0,0,0-.14.14A55.09,55.09,0,0,0,43.6,106a65.58,65.58,0,0,0,.41,7.37,3.52,3.52,0,0,0,.55,1.4q.48.78.82.78C45.51,115.52,45.6,115.43,45.65,115.25Z"/><path class="cls-1" d="M68.52,101.66q.34.21-.68,1.74A4.32,4.32,0,0,1,66,105.22a3.57,3.57,0,0,1-.68.07,4.24,4.24,0,0,1-2.32-.75c-.77-.5-1.18-.93-1.23-1.3a18.6,18.6,0,0,1-.55-5q0-1.5.21-4.64a15.19,15.19,0,0,0,0-3,1.91,1.91,0,0,1-1.37-2,1.58,1.58,0,0,1,.48-1.16q4.64-4.64,6.35-4.64a.32.32,0,0,1,.34.2,6.06,6.06,0,0,1,.34,2,17,17,0,0,1-.48,3.28,17,17,0,0,0-.48,3.35,20.6,20.6,0,0,0-.48,4.1Q66.13,99.75,68.52,101.66Zm0-28.47a3.34,3.34,0,0,1-1,3.21,2.45,2.45,0,0,1-1.57.61,3.26,3.26,0,0,1-1.71-.55q-1.16-.68-1.16-3.07A2.47,2.47,0,0,1,64.25,72a3.51,3.51,0,0,1,1.81-.61A2.47,2.47,0,0,1,68.52,73.19Z"/><path class="cls-1" d="M102.25,101.66a2.64,2.64,0,0,1-.68,1.84,4.84,4.84,0,0,1-1.33,1.43,2.1,2.1,0,0,1-1,.27A5.76,5.76,0,0,1,96,103.85a6.24,6.24,0,0,1-1.91-4.92,36.34,36.34,0,0,1,.34-3.69,19.29,19.29,0,0,0,.07-3.55.56.56,0,0,0-.61-.55,2.36,2.36,0,0,0-1.3.54q-2.39,1.83-5.05,6.63-2.8,5.07-4.78,6.76a.46.46,0,0,1-.34.14,1.37,1.37,0,0,1-.89-.44A1.19,1.19,0,0,1,81,104a52.26,52.26,0,0,1-.27-6.58,25.41,25.41,0,0,0-.55-6.58q-.14-.41-1.09-.95t-1-1a1.18,1.18,0,0,1,.14-.54,6.38,6.38,0,0,1,2.08-2,5.53,5.53,0,0,1,2.49-1.22q2.66.34,2.66,4.1v1.91a5.86,5.86,0,0,0,.55,2.94.4.4,0,0,0,.34.21q.62,0,1-.89a49.81,49.81,0,0,0,3.76-4.58q2.59-3.41,3.69-4.71A3,3,0,0,1,97.33,83a2.69,2.69,0,0,1,2.87,1.91,40.38,40.38,0,0,1-.41,5.87,55.9,55.9,0,0,0-.48,5.8,18,18,0,0,0,.2,2.8q.21.68,1.33,1.09A2.12,2.12,0,0,1,102.25,101.66Z"/><path class="cls-1" d="M118.29,101.66q.34.21-.68,1.74a4.32,4.32,0,0,1-1.84,1.81,3.57,3.57,0,0,1-.68.07,4.24,4.24,0,0,1-2.32-.75c-.77-.5-1.18-.93-1.23-1.3a18.6,18.6,0,0,1-.55-5q0-1.5.21-4.64a15.19,15.19,0,0,0,0-3,1.91,1.91,0,0,1-1.37-2,1.58,1.58,0,0,1,.48-1.16q4.64-4.64,6.35-4.64a.32.32,0,0,1,.34.2,6.06,6.06,0,0,1,.34,2,17,17,0,0,1-.48,3.28,17,17,0,0,0-.48,3.35,20.6,20.6,0,0,0-.48,4.1Q115.9,99.75,118.29,101.66Zm0-28.47a3.34,3.34,0,0,1-1,3.21,2.45,2.45,0,0,1-1.57.61,3.26,3.26,0,0,1-1.71-.55q-1.16-.68-1.16-3.07A2.47,2.47,0,0,1,114,72a3.51,3.51,0,0,1,1.81-.61A2.47,2.47,0,0,1,118.29,73.19Z"/><path class="cls-1" d="M145,96.13a6,6,0,0,1,.14,1.3,9.2,9.2,0,0,1-.89,3.55q-1.3,3.07-1.37,3.28a22.8,22.8,0,0,1-2.66,3.28q-2.46,2.59-3.82,2.46a5.7,5.7,0,0,1-4-1.84,7.34,7.34,0,0,1-1.64-5.05,33.34,33.34,0,0,1,.41-4.23l.65-.38a1.74,1.74,0,0,1,.79-.31.62.62,0,0,1,.55.41,6.36,6.36,0,0,1,.34,2.25c0,.27,0,.68-.07,1.23v1.23q0,2.93,2.18,3.76,2.46-.14,3.55-4.17c0-.32,0-.89.14-1.71a18.44,18.44,0,0,0,.14-1.84q0-2.39-1.71-2.94a11.07,11.07,0,0,0-4-.89,13.63,13.63,0,0,1-3.89-.75,3.55,3.55,0,0,1-2.18-3.07q-.07-5.33,8.13-9.7a13.48,13.48,0,0,0,1.78-.24,13.22,13.22,0,0,1,2.12-.24,2.41,2.41,0,0,1,2.66,1.78q.14,3.35-1.64,4.51a2.35,2.35,0,0,1-1.64-1,9.86,9.86,0,0,0-4.92,3.14,1.35,1.35,0,0,0-.14.61,1.76,1.76,0,0,0,1.23,1.64q2.73.55,5.39,1.16A7.16,7.16,0,0,1,145,96.13Z"/><path class="cls-4" d="M169.9,104.29,172,99.21c2.53,1.7,4.13,3,6.22,3.51a9.22,9.22,0,0,0,3.88.08c3.11-.6,6.18-2.26,6.17-4.75,0-1.49-.79-2.54-3.1-5.31-1.85-2.22-5.12-6.13-4.11-9.29.77-2.42,3.78-3.62,5.13-4.15,2.05-.82,2.56-.34,4.92-1,3.24-.9,6.2-1.66,6.67-3.58.3-1.23-1.11-2.48-3.53-4.62-3.44-3-5.05-7.12-4.94-7.77a4.92,4.92,0,0,1,.44-1.5C191.5,58,193.8,56,200,55.2c.58-.07,2.66.09,4.09-.94a4,4,0,0,0,1.29-1.66,3.65,3.65,0,0,0,.67,2.29,3.86,3.86,0,0,0,3.25,1.38,8.51,8.51,0,0,1-3.42,2.68c-1.93.75-3.29.37-5.92.3s-7,.62-7.33,2c-.45,1.82.92,3.24,4.17,6.33,3.43,3.27,3.37,4.44,3.67,5.83.69,3.19-4.24,7.35-9.58,8.5-3.19.69-6.39,1.13-6.75,2.66-.17.7.85,1.64,3.73,4.88,3.91,4.41,5.49,5.62,5.6,7.84a6.31,6.31,0,0,1-.59,2.89c-1.58,3.58-9.67,5.86-10.74,5.87a42.44,42.44,0,0,1-9.06-.89C172.62,105.06,170.12,104.68,169.9,104.29Z"/><path class="cls-1" d="M190.64,83.35C196,82.19,201,78,200.26,74.82c-.3-1.4-.26-2.54-3.68-5.85a13.23,13.23,0,0,1-4-6.85h-3.2a6.06,6.06,0,0,0,0,.62,5.84,5.84,0,0,0,0,.67c.2,3,4.72,8.11,4.72,8.11,3.14,3.54,3.73,3.86,3.55,4.63-.47,1.93-3.44,2.69-6.69,3.59-2.36.66-2.88.19-4.94,1-1.35.54-4.38,1.74-5.15,4.16-1,3.17,2.27,7.09,4.13,9.31C187.25,97,188,98.06,188,99.55c0,2.49-3.78,4.24-6.19,4.76a10.41,10.41,0,0,1-3.85,0c-1.46-.2-4.41-.59-5.69-2.69a4.62,4.62,0,0,1-.56-1.37,14.78,14.78,0,0,1-.4-3.57q0-.82.34-5.39a23,23,0,0,0-.07-5.39,3,3,0,0,0-2.87-2,2,2,0,0,0-1,.27,19.78,19.78,0,0,0-4.64,5.6,22.77,22.77,0,0,1-4.71,5.8q-.82.62-1.3-.41a20.25,20.25,0,0,1-.21-2.87q0-4.44,2.87-13.45,2.66-8.67,2.46-13.59a2,2,0,0,0-.79-1.3,2.28,2.28,0,0,0-1.54-.75q-.75,0-1.09,1-3.35,6.55-4.64,16.8-.27,2-1.37,18,.07.41.21,4a5.87,5.87,0,0,0,1.16,3.48,1.57,1.57,0,0,0,.89.27,1.68,1.68,0,0,0,1.37-.68q1.64-3.41,3.28-6.76A23.89,23.89,0,0,1,164.11,93a1.45,1.45,0,0,1,1.3-.82,1.21,1.21,0,0,1,1.3.89,31.18,31.18,0,0,1-.07,3.41,32.79,32.79,0,0,0-.14,3.48,14,14,0,0,0,.84,4.25,7.23,7.23,0,0,0,1.12,1.07,9.51,9.51,0,0,0,4.35,1.62,33.55,33.55,0,0,0,4.47.5,35.15,35.15,0,0,0,4.38.13c1-.07,8.73-.74,11-5.9a6.31,6.31,0,0,0,.59-2.9c-.11-2.23-1.7-3.44-5.62-7.86-2.89-3.25-3.91-4.19-3.74-4.89C184.23,84.48,187.44,84,190.64,83.35Z"/></g></g></svg>