<svg xmlns="http://www.w3.org/2000/svg" xmlns:xlink="http://www.w3.org/1999/xlink" viewBox="0 0 47.33 45.83"><defs><style>.cls-1{fill:url(#radial-gradient);}.cls-2{fill:url(#radial-gradient-2);}.cls-3{fill:url(#radial-gradient-3);}</style><radialGradient id="radial-gradient" cx="23.66" cy="22.92" r="17" gradientUnits="userSpaceOnUse"><stop offset="0.08" stop-color="#ffffdb"/><stop offset="0.14" stop-color="#ffffd4" stop-opacity="0.87"/><stop offset="0.3" stop-color="#ffffc3" stop-opacity="0.54"/><stop offset="0.36" stop-color="#ffffbc" stop-opacity="0.4"/><stop offset="0.41" stop-color="#ffffbc" stop-opacity="0.36"/><stop offset="0.75" stop-color="#ffffbc" stop-opacity="0.1"/><stop offset="1" stop-color="#ffffde" stop-opacity="0"/></radialGradient><radialGradient id="radial-gradient-2" cx="23.12" cy="21.87" r="23.13" gradientTransform="translate(-4.26 7.64) rotate(-14.74)" xlink:href="#radial-gradient"/><radialGradient id="radial-gradient-3" cx="23.29" cy="20.95" r="16.33" gradientTransform="translate(-6.01 12.88) rotate(-23.28)" xlink:href="#radial-gradient"/></defs><title>Asset 1</title><g id="Layer_2" data-name="Layer 2"><g id="Layer_2-2" data-name="Layer 2"><polygon class="cls-1" points="40.23 28.28 25.56 24.29 33.91 36.99 24.39 25.14 23.68 40.33 22.94 25.15 13.44 37.01 21.77 24.3 7.11 28.31 21.32 22.92 7.1 17.55 21.77 21.54 13.41 8.84 22.94 20.69 23.65 5.5 24.39 20.68 33.88 8.82 25.56 21.54 40.22 17.52 26.01 22.91 40.23 28.28"/><polygon class="cls-2" points="47.33 24.24 26.64 24.07 42.03 37.9 25.39 25.6 29.72 45.83 23.49 26.1 15.09 45.01 21.65 25.39 3.74 35.75 20.58 23.73 0 21.59 20.69 21.76 5.3 7.93 21.94 20.23 17.61 0 23.84 19.73 32.24 0.82 25.68 20.44 43.59 10.08 26.75 22.1 47.33 24.24"/><polygon class="cls-3" points="40.33 21.36 25.86 23.41 38.06 31.45 25.15 24.61 30.29 38.28 23.87 25.16 20 39.24 22.52 24.85 11.1 33.97 21.59 23.81 7 24.47 21.47 22.42 9.27 14.38 22.18 21.22 17.03 7.55 23.45 20.67 27.33 6.59 24.81 20.98 36.23 11.86 25.73 22.02 40.33 21.36"/></g></g></svg>